<svg width="25" height="25" viewBox="0 0 25 25" fill="none" xmlns="http://www.w3.org/2000/svg">
    <path d="M16.7866 6.19727H3.25V20.8026H7.01762V16.051H14.2371L17.5311 20.8026H21.7499L18.1176 16.0291C19.2458 15.854 20.0579 15.4379 20.5543 14.781C21.0505 14.1241 21.2987 13.073 21.2987 11.6716V10.5768C21.2987 9.74464 21.2086 9.08777 21.0506 8.58414C20.8926 8.08052 20.6219 7.64252 20.2384 7.24839C19.8322 6.87614 19.3811 6.61339 18.8396 6.43827C18.2981 6.28502 17.6212 6.19727 16.7866 6.19727ZM16.1775 12.8323H7.01762V9.41614H16.1775C16.6962 9.41614 17.0573 9.50364 17.2378 9.65702C17.4183 9.81027 17.5311 10.0949 17.5311 10.511V11.7373C17.5311 12.1751 17.4183 12.4598 17.2378 12.613C17.0573 12.7663 16.6964 12.832 16.1775 12.832V12.8323Z" stroke="white" stroke-width="1.5" stroke-linecap="round" stroke-linejoin="round"/>
    <path d="M20.9905 5.94727C21.6805 5.94727 22.2402 5.38764 22.2402 4.69727C22.2402 4.00689 21.6805 3.44727 20.9905 3.44727C20.3 3.44727 19.7402 4.00689 19.7402 4.69727C19.7402 5.38764 20.3 5.94727 20.9905 5.94727Z" fill="white"/>
</svg>
