<svg width="20" height="20" viewBox="0 0 20 20" fill="none" xmlns="http://www.w3.org/2000/svg">
    <path fill-rule="evenodd" clip-rule="evenodd" d="M2.81806 9.09468C7.2857 7.19726 10.2721 5.97088 11.7772 5.36926C16.0298 3.65696 16.9138 3.35615 17.4872 3.33301C17.6067 3.33301 17.8934 3.35615 18.0845 3.49498C18.2278 3.61068 18.2756 3.77265 18.2995 3.88835C18.3234 4.00405 18.3473 4.25858 18.3234 4.46683C18.0845 6.80389 17.105 12.5193 16.5793 15.134C16.3643 16.2447 15.9343 16.6149 15.5281 16.6612C14.6442 16.7306 13.9513 16.0827 13.0912 15.5505C11.7533 14.6944 10.9888 14.1622 9.67481 13.3292C8.16967 12.3573 9.14921 11.8251 10.0093 10.969C10.2243 10.7376 14.1663 7.28982 14.238 6.96587C14.238 6.91959 14.2619 6.78075 14.1663 6.71134C14.0708 6.64192 13.9513 6.66506 13.8558 6.6882C13.7124 6.71134 11.5622 8.09969 7.38126 10.8301C6.76009 11.2466 6.2106 11.4317 5.70889 11.4317C5.15939 11.4317 4.10818 11.1309 3.31977 10.8764C2.36413 10.5756 1.59961 10.4136 1.67129 9.90455C1.71907 9.65002 2.10133 9.37235 2.81806 9.09468Z" fill="#2C3E50"/>
</svg>
