<svg width="48" height="48" viewBox="0 0 48 48" fill="none" xmlns="http://www.w3.org/2000/svg">
    <rect width="48" height="48" rx="24" fill="#6700D1"/>
    <path fill-rule="evenodd" clip-rule="evenodd" d="M15.3817 22.914C20.7429 20.6371 24.3266 19.1654 26.1327 18.4435C31.2359 16.3887 32.2966 16.0278 32.9847 16C33.128 16 33.4721 16.0278 33.7014 16.1944C33.8734 16.3332 33.9308 16.5276 33.9595 16.6664C33.9881 16.8052 34.0168 17.1107 33.9881 17.3606C33.7014 20.1651 32.526 27.0235 31.8953 30.1612C31.6372 31.494 31.1212 31.9383 30.6338 31.9938C29.573 32.0771 28.7416 31.2997 27.7095 30.661C26.1041 29.6336 25.1866 28.995 23.6098 27.9954C21.8037 26.8292 22.9791 26.1905 24.0112 25.1631C24.2692 24.8855 28.9997 20.7482 29.0857 20.3594C29.0857 20.3039 29.1143 20.1373 28.9997 20.054C28.885 19.9707 28.7416 19.9985 28.627 20.0262C28.4549 20.054 25.8747 21.72 20.8576 24.9965C20.1122 25.4963 19.4528 25.7185 18.8507 25.7185C18.1913 25.7185 16.9299 25.3575 15.9838 25.0521C14.837 24.6911 13.9196 24.4967 14.0056 23.8858C14.0629 23.5804 14.5216 23.2472 15.3817 22.914Z" fill="white"/>
</svg>
