<svg width="25" height="25" viewBox="0 0 25 25" fill="none" xmlns="http://www.w3.org/2000/svg">
    <path d="M12.5009 1.45996C6.41358 1.45996 1.46094 6.4126 1.46094 12.5C1.46094 18.5873 6.41358 23.54 12.5009 23.54C18.5888 23.54 23.5409 18.5873 23.5409 12.5C23.5409 6.4126 18.5888 1.45996 12.5009 1.45996ZM17.288 14.6768C18.3617 15.63 18.5849 15.9704 18.6214 16.0284C19.0664 16.734 18.128 16.82 18.128 16.82H16.1504C16.1504 16.82 15.6689 16.8252 15.2576 16.5526C14.587 16.1134 13.8848 15.2619 13.3913 15.4097C12.9771 15.5336 12.9809 16.0932 12.9809 16.5718C12.9809 16.7432 12.8336 16.82 12.5009 16.82C12.1683 16.82 12.0301 16.82 11.8827 16.82C10.7993 16.82 9.62382 16.4552 8.45118 15.2297C6.7923 13.4974 5.33742 10.0078 5.33742 10.0078C5.33742 10.0078 5.2515 9.83212 5.3451 9.72508C5.45118 9.60508 5.73966 9.62044 5.73966 9.62044L7.65726 9.61996C7.65726 9.61996 7.83774 9.65404 7.96734 9.74524C8.07438 9.82012 8.1339 9.96316 8.1339 9.96316C8.1339 9.96316 8.45598 11.0268 8.86638 11.7051C9.66798 13.0289 10.0409 13.0625 10.3131 12.92C10.7105 12.7136 10.5809 11.3062 10.5809 11.3062C10.5809 11.3062 10.5987 10.7019 10.3913 10.4326C10.2315 10.2243 9.92574 10.1134 9.7923 10.0961C9.6843 10.0822 9.86478 9.89308 10.0947 9.78508C10.4019 9.64828 10.82 9.61324 11.5409 9.61996C12.1021 9.62524 12.2638 9.65884 12.4827 9.70924C13.1446 9.86188 12.9809 10.2646 12.9809 11.6787C12.9809 12.1318 12.9185 12.7688 13.2603 12.98C13.4077 13.0712 13.9126 13.1825 14.8112 11.7233C15.2379 11.0312 15.5773 9.883 15.5773 9.883C15.5773 9.883 15.6473 9.75676 15.7563 9.69436C15.8677 9.63052 15.8643 9.63196 16.0169 9.63196C16.1696 9.63196 17.7003 9.61996 18.0363 9.61996C18.3718 9.61996 18.6867 9.61612 18.7409 9.81292C18.8187 10.0956 18.4933 11.0643 17.6686 12.1155C16.3136 13.8406 16.1633 13.6793 17.288 14.6768Z" fill="white"/>
</svg>
