<svg width="48" height="48" viewBox="0 0 48 48" fill="none" xmlns="http://www.w3.org/2000/svg">
    <rect width="48" height="48" rx="24" fill="#6700D1"/>
    <g clip-path="url(#clip0_460_1744)">
        <path d="M24.0009 12.96C17.9136 12.96 12.9609 17.9126 12.9609 24C12.9609 30.0874 17.9136 35.04 24.0009 35.04C30.0888 35.04 35.0409 30.0874 35.0409 24C35.0409 17.9126 30.0888 12.96 24.0009 12.96ZM28.788 26.1768C29.8617 27.1301 30.0849 27.4704 30.1214 27.5285C30.5664 28.2341 29.628 28.32 29.628 28.32H27.6504C27.6504 28.32 27.1689 28.3253 26.7576 28.0526C26.087 27.6134 25.3848 26.7619 24.8913 26.9098C24.4771 27.0336 24.4809 27.5933 24.4809 28.0718C24.4809 28.2432 24.3336 28.32 24.0009 28.32C23.6683 28.32 23.5301 28.32 23.3827 28.32C22.2993 28.32 21.1238 27.9552 19.9512 26.7298C18.2923 24.9974 16.8374 21.5078 16.8374 21.5078C16.8374 21.5078 16.7515 21.3322 16.8451 21.2251C16.9512 21.1051 17.2397 21.1205 17.2397 21.1205L19.1573 21.12C19.1573 21.12 19.3377 21.1541 19.4673 21.2453C19.5744 21.3202 19.6339 21.4632 19.6339 21.4632C19.6339 21.4632 19.956 22.5269 20.3664 23.2051C21.168 24.529 21.5409 24.5626 21.8131 24.42C22.2105 24.2136 22.0809 22.8062 22.0809 22.8062C22.0809 22.8062 22.0987 22.2019 21.8913 21.9326C21.7315 21.7243 21.4257 21.6134 21.2923 21.5962C21.1843 21.5822 21.3648 21.3931 21.5947 21.2851C21.9019 21.1483 22.32 21.1133 23.0409 21.12C23.6021 21.1253 23.7638 21.1589 23.9827 21.2093C24.6446 21.3619 24.4809 21.7646 24.4809 23.1787C24.4809 23.6318 24.4185 24.2688 24.7603 24.48C24.9077 24.5712 25.4126 24.6826 26.3112 23.2234C26.7379 22.5312 27.0773 21.383 27.0773 21.383C27.0773 21.383 27.1473 21.2568 27.2563 21.1944C27.3677 21.1306 27.3643 21.132 27.5169 21.132C27.6696 21.132 29.2003 21.12 29.5363 21.12C29.8718 21.12 30.1867 21.1162 30.2409 21.313C30.3187 21.5957 29.9933 22.5643 29.1686 23.6155C27.8136 25.3406 27.6633 25.1794 28.788 26.1768Z" fill="white"/>
    </g>
    <defs>
        <clipPath id="clip0_460_1744">
            <rect width="24" height="24" fill="white" transform="translate(12 12)"/>
        </clipPath>
    </defs>
</svg>
