<svg width="80" height="54" viewBox="0 0 80 54" fill="none" xmlns="http://www.w3.org/2000/svg">
    <g id="mega-logo 1" clip-path="url(#clip0_718_70)">
        <path id="Vector" d="M22.0006 12.7734C22.304 12.5108 22.6207 12.3061 22.9552 12.1637C23.2896 12.0213 23.5864 11.9501 23.85 11.9501C24.2332 11.9501 24.5278 12.068 24.7293 12.2994C24.9309 12.5331 25.0328 12.9337 25.0328 13.5011V26.7441H29.4271V12.769C29.7306 12.5064 30.0539 12.3017 30.3972 12.1592C30.7406 12.0168 31.0329 11.9456 31.2766 11.9456C31.6597 11.9456 31.9477 12.0636 32.1404 12.295C32.3331 12.5287 32.4283 12.9292 32.4283 13.4967V26.7396H36.8825V13.0383C36.8825 12.1259 36.7407 11.3537 36.4572 10.7239C36.1737 10.0941 35.7794 9.61791 35.2745 9.29301C34.7695 8.96811 34.1936 8.80566 33.5468 8.80566C32.7583 8.80566 31.992 8.96811 31.2433 9.29301C30.4947 9.61791 29.7793 10.1653 29.0927 10.9375C28.8512 10.2277 28.4725 9.69357 27.9564 9.33974C27.4403 8.98592 26.829 8.80789 26.1225 8.80789C25.4159 8.80789 24.6828 8.94364 23.9851 9.21958C23.2874 9.49329 22.6274 9.95616 22.0006 10.606V9.14392H17.5464V26.7419H22.0006V12.7668V12.7734Z" fill="#00A2F6"/>
        <path id="Vector_2" d="M42.1518 26.3368C43.0201 26.8131 44.1009 27.0534 45.3944 27.0534C47.2129 27.0534 48.606 26.5861 49.5762 25.6537C50.5463 24.7213 51.0314 23.3593 51.0314 21.5746V20.1126H46.7898V21.7883C46.7898 22.2556 46.7389 22.6294 46.6392 22.9143C46.5373 23.1991 46.3823 23.4061 46.1697 23.5374C45.957 23.6687 45.709 23.7354 45.4277 23.7354C45.1242 23.7354 44.8717 23.6687 44.6702 23.5374C44.4686 23.4061 44.3114 23.1769 44.2006 22.852C44.0899 22.5271 44.0345 22.1109 44.0345 21.6036V18.1943H51.0646V15.1189C51.0646 13.7793 50.8675 12.6421 50.4732 11.7097C50.079 10.7773 49.4676 10.0652 48.6393 9.57784C47.8109 9.09049 46.73 8.84793 45.3967 8.84793C44.143 8.84793 43.0732 9.08604 42.1851 9.56449C41.2969 10.0407 40.6302 10.7328 40.185 11.6341C39.7398 12.5375 39.5183 13.6591 39.5183 14.9988V20.9048C39.5183 22.2044 39.7398 23.3148 40.185 24.2384C40.628 25.1619 41.2858 25.8629 42.154 26.3391L42.1518 26.3368ZM44.0301 14.6294C44.0301 13.9796 44.081 13.4766 44.1807 13.1228C44.2826 12.769 44.4287 12.5197 44.6192 12.3773C44.8119 12.2349 45.06 12.1637 45.3612 12.1637C45.6846 12.1637 45.9526 12.2304 46.1652 12.3617C46.3779 12.493 46.5329 12.7178 46.6348 13.0316C46.7367 13.3476 46.7854 13.757 46.7854 14.2644V16.0002H44.0278V14.6294H44.0301Z" fill="#00A2F6"/>
        <path id="Vector_3" d="M65.7271 30.4315C65.9198 30.1355 66.0615 29.8039 66.1767 29.4568C66.3539 28.9249 66.4536 28.3419 66.4536 27.6899C66.4536 26.3903 66.1058 25.351 65.4081 24.5699C64.7104 23.7888 63.6251 23.3171 62.15 23.1546L57.9373 22.6984C57.3304 22.6383 56.9118 22.536 56.6792 22.3935C56.4466 22.2511 56.3315 22.0598 56.3315 21.815C56.3315 21.6125 56.378 21.4144 56.4666 21.2208C56.5574 21.0272 56.6637 20.8514 56.7855 20.6889C57.1886 20.8113 57.6183 20.9115 58.0746 20.9938C58.5287 21.0739 59.0093 21.1162 59.5143 21.1162C60.8277 21.1162 61.9086 20.8736 62.7569 20.3863C63.6052 19.8989 64.2409 19.198 64.6661 18.2856C65.0914 17.3732 65.3018 16.2961 65.3018 15.0588C65.3018 14.4691 65.242 13.8816 65.1202 13.2919C64.9984 12.7044 64.8367 12.1948 64.6351 11.7698C64.8766 11.6274 65.1756 11.4761 65.5277 11.3136C65.8821 11.1512 66.2343 10.9998 66.5887 10.8574C66.9409 10.715 67.2199 10.6148 67.4215 10.5525L66.3318 8.23819L65.7249 8.51191C65.2398 8.75447 64.8057 9.04599 64.4225 9.37979C64.0393 9.71581 63.7448 10.034 63.5432 10.3389C63.098 9.85156 62.5443 9.48215 61.8776 9.22846C61.2109 8.97478 60.4224 8.84793 59.5143 8.84793C58.2407 8.84793 57.1554 9.08604 56.2562 9.56449C55.3569 10.0407 54.6747 10.7372 54.2096 11.6496C53.7445 12.5642 53.5119 13.6791 53.5119 14.9988C53.5119 16.1359 53.6625 17.0794 53.966 17.8294C54.2694 18.5793 54.7235 19.2091 55.3303 19.7165C54.7235 20.2439 54.2495 20.7624 53.9062 21.2698C53.5629 21.7771 53.3901 22.3869 53.3901 23.0968C53.3901 23.7666 53.5872 24.314 53.9815 24.7413C54.3757 25.1685 54.925 25.4823 55.6338 25.6848C55.1487 25.9274 54.6991 26.2122 54.2849 26.5371C53.8707 26.862 53.5473 27.2426 53.3148 27.6787C53.0822 28.1149 52.967 28.6067 52.967 29.1563C52.967 29.2632 52.9848 29.3589 52.9936 29.4612C53.0534 30.1333 53.2993 30.7007 53.7555 31.1502C54.1808 31.5686 54.75 31.9002 55.4477 32.1539C55.6116 32.214 55.7755 32.2718 55.9527 32.323C56.8918 32.5856 57.9993 32.7191 59.2706 32.7191C60.9429 32.7191 62.3051 32.53 63.3594 32.1539C63.3749 32.1494 63.3926 32.145 63.4081 32.1405C64.469 31.7555 65.242 31.1859 65.7271 30.4359V30.4315ZM58.0613 13.4744C58.1012 13.0471 58.1721 12.7022 58.2739 12.4396C58.3758 12.177 58.5309 11.9834 58.7435 11.861C58.9561 11.7386 59.2131 11.6786 59.5165 11.6786C59.8399 11.6786 60.1012 11.7386 60.305 11.861C60.5066 11.9834 60.6572 12.1815 60.7591 12.4552C60.8587 12.7289 60.9296 13.0738 60.9717 13.49C61.0116 13.9061 61.0315 14.409 61.0315 14.9965C61.0315 15.584 61.0116 16.0936 60.9717 16.5187C60.9318 16.9437 60.8609 17.2909 60.7591 17.5534C60.6572 17.8183 60.5066 18.0096 60.305 18.132C60.1034 18.2544 59.8399 18.3145 59.5165 18.3145C59.1931 18.3145 58.9296 18.2478 58.728 18.1165C58.5264 17.9852 58.3736 17.7804 58.2739 17.5067C58.1721 17.233 58.1012 16.8881 58.0613 16.4719C58.0214 16.0558 58.0015 15.564 58.0015 14.9943C58.0015 14.4246 58.0214 13.8972 58.0613 13.4722V13.4744ZM62.3649 29.0317C61.7779 29.2342 60.9296 29.3366 59.8199 29.3366C58.5885 29.3366 57.7136 29.2098 57.1997 28.9561C56.6836 28.7024 56.4267 28.3307 56.4267 27.8456C56.4267 27.6031 56.4777 27.3783 56.5773 27.1758C56.6792 26.9733 56.8099 26.7797 56.9716 26.5972C57.1333 26.4147 57.3149 26.2434 57.5164 26.0787L60.6683 26.3836C61.3349 26.4437 61.8554 26.5349 62.2275 26.6573C62.6019 26.7797 62.8632 26.9355 63.016 27.1291C63.1667 27.3227 63.2442 27.5608 63.2442 27.8456C63.2442 28.4331 62.9518 28.8292 62.3649 29.034V29.0317Z" fill="#00A2F6"/>
        <path id="Vector_4" d="M9.06337 36.3064C8.81973 35.8813 8.50079 35.5408 8.11097 35.2872C7.72114 35.0335 7.24051 34.9066 6.66907 34.9066C6.14856 34.9066 5.63028 35.0223 5.11864 35.2493C4.60478 35.4785 4.12857 35.799 3.69002 36.2062V35.1514H0V54H3.68781V48.2564C4.12857 48.6481 4.58706 48.9685 5.06769 49.2133C5.54833 49.4581 6.04003 49.5805 6.54503 49.5805C7.27816 49.5805 7.87619 49.3757 8.34132 48.9663C8.80645 48.5568 9.15197 48.0005 9.3801 47.2973C9.60824 46.5941 9.7212 45.7841 9.7212 44.8672V39.3195C9.7212 38.7787 9.67247 38.2468 9.57502 37.7239C9.47756 37.2009 9.30701 36.7269 9.06116 36.2997L9.06337 36.3064ZM6.03339 45.043C6.03339 45.4191 6.00017 45.764 5.93593 46.0733C5.86949 46.3849 5.76096 46.6341 5.60591 46.8211C5.45087 47.0102 5.21831 47.1037 4.91043 47.1037C4.6823 47.1037 4.47188 47.0659 4.27476 46.9924C4.07985 46.919 3.88272 46.8166 3.68781 46.6853V37.7996C3.86722 37.6371 4.06213 37.5014 4.27476 37.3945C4.48517 37.2877 4.70666 37.2343 4.9348 37.2343C5.21166 37.2343 5.43094 37.3211 5.59484 37.4925C5.75653 37.6638 5.8717 37.8886 5.93593 38.1667C6.00017 38.4449 6.03339 38.7564 6.03339 39.0991V45.0386V45.043Z" fill="#00A2F6"/>
        <path id="Vector_5" d="M19.0769 35.4963C18.408 35.1047 17.5375 34.9066 16.4633 34.9066C15.4533 34.9066 14.5917 35.1002 13.8741 35.483C13.1564 35.868 12.6204 36.4243 12.2616 37.152C11.9028 37.8797 11.7234 38.7832 11.7234 39.8647V44.6269C11.7234 45.675 11.9028 46.5696 12.2616 47.3151C12.6204 48.0606 13.1498 48.6236 13.8497 49.0086C14.5496 49.3936 15.4201 49.5849 16.4633 49.5849C17.9295 49.5849 19.0525 49.2088 19.8344 48.4567C20.6162 47.7045 21.006 46.6074 21.006 45.1676V43.9904H17.5862V45.3412C17.5862 45.7173 17.5464 46.0199 17.4644 46.2492C17.3825 46.4784 17.2562 46.6453 17.0857 46.7521C16.9151 46.8589 16.7158 46.9123 16.4876 46.9123C16.244 46.9123 16.0402 46.8589 15.8763 46.7521C15.7124 46.6453 15.5862 46.4628 15.4976 46.2002C15.4068 45.9376 15.3625 45.6038 15.3625 45.1943V42.4461H21.0304V39.967C21.0304 38.8877 20.8709 37.9709 20.5542 37.2187C20.2375 36.4666 19.7435 35.8924 19.0769 35.5008V35.4963ZM17.5862 40.6747H15.3625V39.5709C15.3625 39.048 15.4023 38.643 15.4843 38.3559C15.5662 38.0688 15.6836 37.8685 15.8387 37.755C15.9937 37.6416 16.1931 37.5837 16.4367 37.5837C16.6981 37.5837 16.9129 37.6371 17.0834 37.7439C17.254 37.8507 17.3802 38.031 17.4622 38.2824C17.5441 38.5361 17.584 38.8677 17.584 39.2772V40.6769L17.5862 40.6747Z" fill="#00A2F6"/>
        <path id="Vector_6" d="M30.0451 34.9801C29.4094 34.9801 28.8601 35.1803 28.3972 35.5809C27.9321 35.9815 27.4648 36.6001 26.993 37.4346V35.1514H23.3052V49.3379H26.993V39.8647C27.3186 39.4218 27.6685 39.0836 28.0428 38.8455C28.4172 38.6096 28.8314 38.4894 29.2876 38.4894C29.5313 38.4894 29.7683 38.5183 29.9964 38.5762C30.2245 38.6341 30.4283 38.703 30.6077 38.7854V35.0557C30.5258 35.0223 30.4394 35.0023 30.3508 34.9934C30.26 34.9845 30.1603 34.9823 30.0451 34.9823V34.9801Z" fill="#00A2F6"/>
        <path id="Vector_7" d="M39.352 42.8711C38.9777 42.4861 38.5945 42.1234 38.2047 41.7785L36.8868 40.6012C36.3486 40.1428 35.93 39.7512 35.6288 39.424C35.3276 39.0969 35.1769 38.7854 35.1769 38.4916C35.1769 38.2135 35.2655 37.9843 35.4449 37.804C35.6244 37.6238 35.8613 37.5347 36.1537 37.5347C36.4616 37.5347 36.7429 37.6416 36.9954 37.853C37.2479 38.0666 37.4561 38.3314 37.6178 38.6496C37.7794 38.9679 37.9101 39.3083 38.0076 39.6688L40.4019 38.5895C40.1405 37.4613 39.64 36.5645 38.9002 35.9013C38.1582 35.2382 37.2102 34.9066 36.054 34.9066C35.3054 34.9066 34.6099 35.0668 33.9654 35.3851C33.3209 35.7033 32.8092 36.1506 32.426 36.7225C32.0429 37.2944 31.8524 37.9665 31.8524 38.7342C31.8524 39.6021 32.0606 40.3253 32.4748 40.9061C32.8912 41.4869 33.4405 42.0722 34.1249 42.6619L35.4427 43.7902C36.1116 44.3465 36.5745 44.7804 36.8359 45.092C37.095 45.4035 37.2257 45.7551 37.2257 46.1468C37.2257 46.425 37.1393 46.6408 36.9688 46.7966C36.7982 46.9524 36.5413 47.0302 36.2002 47.0302C35.744 47.0302 35.3453 46.8389 35.0042 46.4539C34.6631 46.0689 34.3685 45.5326 34.1249 44.8472L31.5356 45.9265C31.9764 47.1704 32.5899 48.0895 33.3807 48.6881C34.1714 49.2845 35.1769 49.5849 36.3974 49.5849C37.1637 49.5849 37.868 49.4381 38.5104 49.1421C39.1527 48.8483 39.671 48.4144 40.0608 47.8403C40.4506 47.2684 40.6477 46.5718 40.6477 45.7551C40.6477 45.1498 40.5259 44.6135 40.2823 44.1484C40.0386 43.6833 39.7286 43.2561 39.3542 42.8711H39.352Z" fill="#00A2F6"/>
        <path id="Vector_8" d="M61.2509 35.3495C60.8854 35.0557 60.4092 34.9066 59.8223 34.9066C59.1866 34.9066 58.5886 35.0579 58.026 35.3606C57.4634 35.6632 56.9296 36.0682 56.4268 36.5756V35.1514H52.739V49.3379H56.4268V38.1712C56.6705 37.9909 56.9119 37.8485 57.1467 37.7417C57.3814 37.6349 57.5985 37.5815 57.7934 37.5815C58.1345 37.5815 58.3671 37.6794 58.4889 37.8752C58.6107 38.071 58.6727 38.367 58.6727 38.7587V49.3357H62.3362V38.1445C62.3362 37.5392 62.2476 36.9962 62.0682 36.5133C61.8888 36.0304 61.6163 35.6432 61.2509 35.3472V35.3495Z" fill="#00A2F6"/>
        <path id="Vector_9" d="M73.7829 47.3129C73.7585 46.8789 73.7452 46.3849 73.7452 45.8286V39.226C73.7452 37.9331 73.4041 36.8916 72.7197 36.0972C72.0353 35.305 70.9766 34.9066 69.5435 34.9066C67.9466 34.9066 66.755 35.3072 65.9643 36.1083C65.1735 36.9094 64.7394 38.1445 64.6575 39.8135L68.1504 39.9604L68.2235 38.979C68.239 38.7342 68.2766 38.5094 68.3342 38.3047C68.3918 38.1 68.4893 37.9442 68.6266 37.8396C68.7639 37.7328 68.9655 37.6794 69.2246 37.6794C69.4837 37.6794 69.6853 37.7417 69.8226 37.8641C69.9599 37.9865 70.0552 38.1623 70.1039 38.3915C70.1526 38.6207 70.177 38.89 70.177 39.2015V40.5278C69.4926 40.7726 68.8082 41.0441 68.126 41.3378C67.4416 41.6316 66.8237 41.9854 66.2699 42.3926C65.7162 42.8021 65.2688 43.3095 64.9255 43.9148C64.5844 44.5201 64.4116 45.2656 64.4116 46.149C64.4116 46.7053 64.5334 47.2461 64.7771 47.7691C65.0207 48.292 65.384 48.726 65.8646 49.0709C66.3452 49.4136 66.9189 49.5872 67.5856 49.5872C68.3519 49.5872 68.961 49.3535 69.4173 48.8884C69.8736 48.4211 70.1837 47.8937 70.3453 47.3062C70.3786 47.4531 70.4273 47.7401 70.4915 48.1652C70.5558 48.5902 70.6133 48.9841 70.6621 49.3424H73.9844C73.9512 49.0976 73.9135 48.8061 73.8737 48.4723C73.8316 48.1362 73.8006 47.7535 73.7762 47.3195L73.7829 47.3129ZM70.1792 46.1468C70.0973 46.2625 69.9954 46.3849 69.8736 46.514C69.7517 46.6453 69.61 46.7521 69.4461 46.8322C69.2844 46.9145 69.1116 46.9546 68.9322 46.9546C68.5734 46.9546 68.2966 46.8122 68.1016 46.5251C67.9067 46.238 67.8093 45.8508 67.8093 45.359C67.8093 44.9829 67.8647 44.6469 67.9798 44.3532C68.0928 44.0594 68.2567 43.7879 68.4693 43.5431C68.6797 43.2984 68.9322 43.0736 69.2268 42.8689C69.5192 42.6641 69.8381 42.455 70.1792 42.2435V46.1468Z" fill="#00A2F6"/>
        <path id="Vector_10" d="M66.9543 31.2326C66.7372 31.5708 66.4648 31.869 66.168 32.1517H73.991V29.459H67.7051C67.5456 30.1043 67.2998 30.7007 66.9565 31.2348L66.9543 31.2326Z" fill="#6700D1"/>
        <path id="Vector_11" d="M11.4333 32.1517H14.5032V29.459H11.0679V26.3369C11.2229 26.2612 11.389 26.1967 11.5308 26.1099C12.5917 25.4601 13.3492 24.5321 13.8033 23.3238C14.2573 22.1176 14.4855 20.6712 14.4855 18.9866V9.79149C14.4855 8.10691 14.2573 6.67157 13.8033 5.48324C13.3492 4.29491 12.5917 3.38252 11.5308 2.74385C10.4698 2.10518 9.03015 1.78473 7.21393 1.78473C5.39771 1.78473 3.99125 2.10073 2.94139 2.72827C1.89153 3.35804 1.13846 4.27043 0.684404 5.46766C0.23035 6.66489 0.0022149 8.10691 0.0022149 9.79149V18.9866C0.0022149 20.6712 0.23035 22.1176 0.684404 23.3238C1.13846 24.5321 1.89153 25.4601 2.94139 26.1099C3.20939 26.2745 3.50176 26.4192 3.81849 26.5416V29.459H0V32.1517H5.10978V31.5575L8.27044 30.8031L9.29151 32.1517H10.1332L8.98585 30.634L10.0889 30.3692L11.4333 32.1517ZM11.5529 14.0975L5.19616 15.613C5.15629 15.3838 5.12971 15.1568 5.11864 14.932L11.7013 13.3609C11.6725 13.6146 11.6238 13.8594 11.5529 14.0953V14.0975ZM6.57161 9.30859L8.5916 10.3345C9.33138 11.0889 9.74999 12.0725 9.78322 13.1273L5.1275 14.2355C5.1585 13.855 5.22938 13.4855 5.34456 13.1295C5.3512 13.1161 5.35342 13.0983 5.35785 13.085C5.38885 12.9937 5.42208 12.907 5.45752 12.8202C6.42543 12.6377 7.15856 11.7854 7.15856 10.7617C7.15856 10.1987 6.93485 9.68467 6.57161 9.30859ZM11.7124 12.6688L10.4455 12.9693C10.3768 11.8032 9.90061 10.7172 9.08109 9.87827V9.02375C10.554 9.60678 11.6172 11.0087 11.7124 12.6688ZM6.17293 5.7436C6.07104 5.46988 6.12863 5.14721 6.34791 4.9269L7.14306 4.12801C7.50851 3.7675 7.67685 3.59615 8.01573 3.59615C8.47421 3.59615 8.84631 3.82981 8.8884 4.12801H8.89726C8.92383 4.33274 8.86182 4.54415 8.72449 4.71327C8.94377 4.96473 9.07888 5.29631 9.07888 5.65681C9.07888 5.80814 9.05673 5.94833 9.01465 6.08408L9.46649 7.09661H8.98142V8.32277H8.41441V9.49107L6.21723 8.37395V7.09661C5.84734 7.09661 5.5439 6.79396 5.5439 6.41788C5.5439 6.0418 5.82519 5.76585 6.17514 5.7436H6.17293ZM3.04106 11.209C3.13187 11.0444 3.22711 10.8841 3.33121 10.7239C3.45082 10.5392 3.57928 10.3612 3.7166 10.1876C3.80298 10.0786 4.04219 9.80039 4.04219 9.80039C4.23046 9.59566 4.47631 9.44656 4.75761 9.38203C4.85949 9.35755 4.96581 9.34419 5.07655 9.34419C5.17179 9.34419 5.26482 9.3531 5.35563 9.3709C6.00238 9.50219 6.49187 10.0763 6.49187 10.764C6.49187 11.4939 5.94258 12.0969 5.23603 12.1748L5.06105 12.0814C5.04333 12.1125 5.03004 12.1459 5.01232 12.1793C4.98574 12.2327 4.95916 12.2839 4.93701 12.3373C4.91044 12.3951 4.88607 12.4485 4.86392 12.5064C4.81962 12.611 4.77754 12.7178 4.73989 12.8268C4.73546 12.838 4.73324 12.8513 4.72881 12.8647C4.63579 13.1384 4.56713 13.421 4.52061 13.7103C4.48739 13.895 4.4586 14.0797 4.44531 14.2711C4.42316 14.5426 4.42537 14.8207 4.44531 15.1011C4.48074 15.6486 4.58927 16.2071 4.77976 16.7679C4.8462 16.9615 4.92151 17.1551 5.00568 17.351C5.04111 17.4266 5.07877 17.5067 5.11421 17.5846C5.13193 17.6247 5.14964 17.6625 5.16958 17.7048C5.17622 17.7181 5.18508 17.7337 5.19173 17.7471L2.97683 18.2767C1.9026 15.8333 1.91589 13.2942 3.04327 11.2113L3.04106 11.209ZM4.91929 20.5376C4.87057 20.5376 4.82405 20.5354 4.77754 20.531C4.66015 20.5176 4.54719 20.4887 4.44309 20.4442C4.13522 20.3151 3.89601 20.077 3.72989 19.7521C3.60364 19.5073 3.47296 19.2959 3.34893 19.06C3.32014 19.0088 3.29577 18.9554 3.26919 18.9042L5.72995 18.3167C6.00238 18.5482 6.17514 18.8909 6.17514 19.2781C6.17514 19.9056 5.71666 20.4264 5.11421 20.5221C5.05219 20.531 4.98574 20.5354 4.92151 20.5354L4.91929 20.5376ZM8.27487 30.111L5.11199 30.8654V21.203C5.41543 21.1719 5.69451 21.0673 5.93815 20.9115C6.20615 20.7424 6.43207 20.5109 6.58933 20.2328C6.7488 19.9501 6.84404 19.623 6.84404 19.2781C6.84404 18.8508 6.70008 18.4614 6.46751 18.1409L8.27487 17.7092V30.111ZM9.78986 29.7505L8.94377 29.9508V17.5512L9.78986 17.3465V29.7483V29.7505ZM8.86846 16.8636L5.85398 17.5846C5.65686 17.1907 5.45752 16.6589 5.34677 16.2694L11.1277 14.892C10.9527 15.2369 10.7246 15.5484 10.4588 15.8288C10.3547 15.9401 10.2417 16.0469 10.1243 16.147C10.018 16.2383 9.90504 16.3206 9.78986 16.4007C9.50414 16.5943 9.19848 16.7523 8.86846 16.8658V16.8636Z" fill="#6700D1"/>
        <path id="Vector_12" d="M17.5442 29.459V32.1517H52.6924C51.9859 31.4351 51.5983 30.5094 51.5318 29.459H17.5442Z" fill="#6700D1"/>
        <path id="Vector_13" d="M79.9979 29.459H76.3101V49.3379H79.9979V29.459Z" fill="#6700D1"/>
        <path id="Vector_14" d="M48.0767 34.9066V38.6096H50.4909C50.4311 36.9005 49.7245 35.5898 48.0767 34.9066Z" fill="#00A2F6"/>
        <path id="Vector_15" d="M44.5041 34.9066C42.854 35.5876 42.1474 36.9005 42.0898 38.6096H44.5041V34.9066Z" fill="#00A2F6"/>
        <path id="Vector_16" d="M42.0876 39.4151V44.8872C42.0876 45.8642 42.2205 46.7009 42.4841 47.4019C42.7477 48.1006 43.1862 48.6436 43.7953 49.0197C44.4044 49.3958 45.2284 49.5849 46.2738 49.5849C47.3192 49.5849 48.1609 49.3936 48.7766 49.0197C49.3924 48.6436 49.8354 48.1006 50.0945 47.4019C50.3581 46.7031 50.491 45.8642 50.491 44.8872V39.4151H42.0876ZM47.5407 45.6105C47.5407 45.9398 47.5119 46.2469 47.4477 46.534C47.3901 46.8233 47.2749 47.0547 47.0978 47.2283C46.925 47.3952 46.6481 47.482 46.276 47.482C45.9039 47.482 45.6426 47.3952 45.4654 47.2283C45.2926 47.0547 45.1774 46.8233 45.1265 46.534C45.0689 46.2447 45.0468 45.9398 45.0468 45.6105V40.6992H47.5429V45.6105H47.5407Z" fill="#00A2F6"/>
        <path id="Vector_17" d="M46.9913 34.1834H45.5892C45.3446 34.1834 45.1462 34.3826 45.1462 34.6284V38.1645C45.1462 38.4103 45.3446 38.6096 45.5892 38.6096H46.9913C47.2359 38.6096 47.4342 38.4103 47.4342 38.1645V34.6284C47.4342 34.3826 47.2359 34.1834 46.9913 34.1834Z" fill="#00A2F6"/>
        <path id="Vector_18" d="M79.7431 24.2384C79.7121 23.7021 79.6966 23.0879 79.6966 22.398V14.211C79.6966 12.6088 79.2736 11.3158 78.4253 10.33C78.2525 10.1297 78.0532 9.96061 77.8428 9.80261H70.7351C70.4893 9.96506 70.2545 10.1386 70.0507 10.3434C69.0717 11.3381 68.5313 12.8691 68.4294 14.9387L72.7618 15.1212L72.8526 13.9039C72.8725 13.599 72.919 13.3209 72.9899 13.0672C73.0608 12.8135 73.1804 12.6221 73.3531 12.4886C73.5237 12.3573 73.7718 12.2905 74.0951 12.2905C74.4185 12.2905 74.6644 12.3662 74.8371 12.5175C75.0077 12.6688 75.1251 12.8869 75.1849 13.1718C75.2447 13.4566 75.2757 13.7904 75.2757 14.1754V15.8199C74.4274 16.1248 73.5791 16.4586 72.7308 16.8235C71.8825 17.1885 71.1139 17.6247 70.4273 18.132C69.7406 18.6394 69.1869 19.2692 68.7617 20.0191C68.3386 20.7691 68.126 21.6926 68.126 22.7874C68.126 23.4773 68.2766 24.1471 68.58 24.7969C68.8835 25.4467 69.3309 25.983 69.9289 26.4103C70.5247 26.8353 71.2357 27.049 72.0641 27.049C73.012 27.049 73.7718 26.7597 74.3366 26.1811C74.9014 25.6025 75.2868 24.9482 75.4883 24.2183C75.5282 24.4008 75.588 24.7569 75.6699 25.2843C75.7497 25.8117 75.8205 26.299 75.8826 26.7441H80.0023C79.9624 26.4392 79.9159 26.0809 79.865 25.6648C79.814 25.2487 79.7741 24.7724 79.7454 24.2339L79.7431 24.2384ZM75.2757 22.7919C75.1738 22.9343 75.0475 23.0856 74.8969 23.2481C74.7463 23.4105 74.5691 23.5418 74.3676 23.6442C74.166 23.7466 73.9534 23.7955 73.7319 23.7955C73.2889 23.7955 72.9434 23.6175 72.702 23.2637C72.4605 22.9098 72.3387 22.4269 72.3387 21.8172C72.3387 21.3499 72.4096 20.9337 72.5514 20.5688C72.6931 20.2038 72.8947 19.8678 73.1582 19.5652C73.4196 19.2603 73.7341 18.9821 74.0974 18.7284C74.4606 18.4747 74.8548 18.2166 75.2779 17.9518V22.7897L75.2757 22.7919Z" fill="#00A2F6"/>
        <g id="Group">
            <path id="Vector_19" d="M70.662 4.91354H70.6731L72.465 4.73106L72.9611 4.67988L73.362 4.63982C73.548 4.62202 73.7142 4.75777 73.7319 4.94247C73.7363 4.98475 73.7319 5.02481 73.7208 5.06264C73.6854 5.19616 73.5746 5.29852 73.4306 5.3141L70.7484 5.58559C70.8592 6.45347 70.9699 7.23456 70.9699 7.23456H77.4175C77.4175 7.23456 77.5991 5.68128 77.7364 4.51743C78.2171 4.03898 78.5161 3.37583 78.5161 2.64147C78.5161 1.18165 77.3377 -0.00222778 75.8848 -0.00222778C75.2358 -0.00222778 74.6488 0.242559 74.1904 0.634218C74.0132 0.589712 73.8315 0.558557 73.6411 0.558557C72.6887 0.558557 71.878 1.15717 71.5524 1.99835C70.7174 2.07624 70.0596 2.77277 70.0596 3.63397C70.0596 4.1458 70.2966 4.59977 70.662 4.90241C70.662 4.90686 70.662 4.90909 70.662 4.91354Z" fill="#00A2F6"/>
            <path id="Vector_20" d="M77.4286 7.91776H70.9811C70.6843 7.91776 70.4451 8.15809 70.4451 8.45629C70.4451 8.75448 70.6843 8.99482 70.9811 8.99482H77.4286C77.7254 8.99482 77.9647 8.75448 77.9647 8.45629C77.9647 8.15809 77.7254 7.91776 77.4286 7.91776Z" fill="#00A2F6"/>
        </g>
    </g>
    <defs>
        <clipPath id="clip0_718_70">
            <rect width="80" height="54" fill="white"/>
        </clipPath>
    </defs>
</svg>
