<svg width="64" height="64" viewBox="0 0 64 64" fill="none" xmlns="http://www.w3.org/2000/svg">
    <rect width="64" height="64" rx="20" fill="#EDF7FF"/>
    <path d="M45.9166 26.8715L45.3062 26.532C45.2114 26.4793 45.1648 26.4528 45.119 26.4254C44.6639 26.1528 44.2803 25.7761 44.0003 25.3254C43.9721 25.28 43.9456 25.2325 43.8913 25.1385C43.8371 25.0446 43.8096 24.9971 43.7844 24.95C43.5333 24.4811 43.3975 23.9586 43.3893 23.4268C43.3885 23.3733 43.3887 23.3187 43.3905 23.2101L43.4024 22.5013C43.4215 21.3671 43.4311 20.7982 43.2717 20.2877C43.1301 19.8342 42.8933 19.4165 42.577 19.0621C42.2194 18.6614 41.7246 18.3756 40.7337 17.8046L39.9107 17.3303C38.9226 16.761 38.4284 16.4762 37.9039 16.3676C37.4398 16.2716 36.9609 16.276 36.4985 16.3798C35.9766 16.497 35.4886 16.7892 34.5131 17.3733L34.5076 17.3759L33.9179 17.729C33.8246 17.7848 33.7774 17.813 33.7307 17.839C33.2669 18.0968 32.7491 18.2394 32.2187 18.2564C32.1653 18.2582 32.1109 18.2582 32.0022 18.2582C31.8941 18.2582 31.8374 18.2582 31.7841 18.2564C31.2525 18.2394 30.7337 18.096 30.2692 17.8371C30.2224 17.811 30.1761 17.7826 30.0826 17.7265L29.4892 17.3702C28.507 16.7806 28.0152 16.4854 27.4905 16.3676C27.0262 16.2634 26.5456 16.2606 26.0798 16.3578C25.5539 16.4677 25.0596 16.7546 24.071 17.3284L24.0666 17.3303L23.2538 17.8021L23.2448 17.8076C22.2651 18.3762 21.774 18.6612 21.4195 19.0602C21.1049 19.4143 20.8697 19.8314 20.729 20.2836C20.5699 20.7949 20.5784 21.3649 20.5976 22.5045L20.6095 23.2123C20.6113 23.3194 20.6144 23.3727 20.6136 23.4254C20.6057 23.9583 20.4681 24.4819 20.2162 24.9516C20.1913 24.998 20.1645 25.0445 20.1109 25.1373C20.0573 25.2301 20.0313 25.2763 20.0035 25.3211C19.7223 25.7742 19.3369 26.1531 18.8789 26.4262C18.8336 26.4532 18.7858 26.4792 18.692 26.5312L18.0894 26.8651C17.0868 27.4207 16.5856 27.6988 16.2209 28.0945C15.8983 28.4445 15.6546 28.8597 15.5058 29.3119C15.3376 29.8231 15.3378 30.3963 15.3404 31.5426L15.3425 32.4795C15.3451 33.6181 15.3487 34.187 15.5172 34.6947C15.6663 35.1439 15.9082 35.5566 16.2291 35.9046C16.5917 36.2978 17.0879 36.5742 18.0829 37.1277L18.6801 37.46C18.7818 37.5165 18.8329 37.5444 18.8819 37.5739C19.3358 37.8472 19.7182 38.2251 19.997 38.6756C20.0271 38.7242 20.056 38.7747 20.1138 38.8758C20.1709 38.9755 20.2001 39.0254 20.2266 39.0754C20.471 39.5382 20.6019 40.0525 20.6108 40.5758C20.6118 40.6323 20.611 40.6895 20.609 40.8045L20.5976 41.4837C20.5782 42.6271 20.5698 43.1995 20.7299 43.7122C20.8714 44.1657 21.1081 44.5833 21.4244 44.9378C21.7819 45.3385 22.2776 45.6241 23.2685 46.1951L24.0913 46.6693C25.0794 47.2386 25.5732 47.5231 26.0978 47.6316C26.5619 47.7277 27.0411 47.724 27.5035 47.6202C28.0261 47.5028 28.5158 47.2096 29.494 46.6239L30.0837 46.2708C30.177 46.2149 30.2243 46.1869 30.271 46.1609C30.7348 45.903 31.2521 45.7597 31.7825 45.7427C31.8359 45.741 31.8903 45.741 31.999 45.741C32.108 45.741 32.1623 45.741 32.2159 45.7427C32.7474 45.7598 33.2678 45.9036 33.7323 46.1625C33.7732 46.1853 33.8141 46.2099 33.886 46.2531L34.513 46.6295C35.4952 47.2192 35.986 47.5136 36.5108 47.6313C36.9751 47.7355 37.456 47.7397 37.9218 47.6424C38.4475 47.5326 38.9429 47.2451 39.9309 46.6717L40.7559 46.1929C41.7363 45.6239 42.2279 45.3386 42.5825 44.9394C42.8971 44.5853 43.1326 44.1685 43.2733 43.7162C43.4313 43.2087 43.4218 42.643 43.4028 41.5199L43.3905 40.7874C43.3887 40.6802 43.3885 40.6269 43.3893 40.5742C43.3972 40.0413 43.5325 39.5173 43.7844 39.0476C43.8093 39.0012 43.8363 38.9544 43.8897 38.8619C43.9434 38.7691 43.9711 38.7228 43.9989 38.678C44.2801 38.2249 44.6659 37.8457 45.1239 37.5726C45.1687 37.5459 45.2148 37.5204 45.3063 37.4696L45.3095 37.4682L45.9121 37.1342C46.9147 36.5786 47.4168 36.3003 47.7815 35.9046C48.1042 35.5545 48.3475 35.1399 48.4963 34.6877C48.6635 34.1795 48.6622 33.6097 48.6596 32.4768L48.6575 31.5198C48.6549 30.3812 48.6535 29.8123 48.4849 29.3046C48.3358 28.8555 48.0925 28.4427 47.7717 28.0947C47.4094 27.7018 46.9125 27.4254 45.9195 26.873L45.9166 26.8715Z" stroke="#6700D1" stroke-width="2" stroke-linecap="round" stroke-linejoin="round"/>
    <path d="M25.3339 31.9999C25.3339 35.6818 28.3187 38.6666 32.0005 38.6666C35.6824 38.6666 38.6672 35.6818 38.6672 31.9999C38.6672 28.318 35.6824 25.3333 32.0005 25.3333C28.3187 25.3333 25.3339 28.318 25.3339 31.9999Z" stroke="#6700D1" stroke-width="2" stroke-linecap="round" stroke-linejoin="round"/>
</svg>